<svg xmlns="http://www.w3.org/2000/svg" viewBox="0 0 520 420" font-family="Pretendard, system-ui, sans-serif">
  <rect x="170" y="15" width="180" height="40" rx="10" fill="#27272a" stroke="#52525b" stroke-width="1.5"/>
  <text x="260" y="40" text-anchor="middle" font-size="12" font-weight="600" fill="#a1a1aa">Daily Scheduler (월~토 7시)</text>

  <line x1="260" y1="55" x2="260" y2="80" stroke="#52525b" stroke-width="1.5" marker-end="url(#arrowsd)"/>

  <rect x="30" y="80" width="460" height="95" rx="12" fill="#172554" stroke="#3b82f6" stroke-width="1.5"/>
  <text x="260" y="100" text-anchor="middle" font-size="13" font-weight="700" fill="#bfdbfe">병렬 데이터 수집 (asyncio.gather)</text>

  <rect x="45" y="110" width="130" height="50" rx="8" fill="#1e3a5f" stroke="#60a5fa" stroke-width="1"/>
  <text x="110" y="131" text-anchor="middle" font-size="10" font-weight="600" fill="#93c5fd">Market Collector</text>
  <text x="110" y="148" text-anchor="middle" font-size="9" fill="#7dd3fc">KOSPI · KOSDAQ</text>

  <rect x="195" y="110" width="130" height="50" rx="8" fill="#1e3a5f" stroke="#60a5fa" stroke-width="1"/>
  <text x="260" y="131" text-anchor="middle" font-size="10" font-weight="600" fill="#93c5fd">Disclosure Collector</text>
  <text x="260" y="148" text-anchor="middle" font-size="9" fill="#7dd3fc">DART API</text>

  <rect x="345" y="110" width="130" height="50" rx="8" fill="#1e3a5f" stroke="#60a5fa" stroke-width="1"/>
  <text x="410" y="131" text-anchor="middle" font-size="10" font-weight="600" fill="#93c5fd">News Collector</text>
  <text x="410" y="148" text-anchor="middle" font-size="9" fill="#7dd3fc">시장 · 종목별 뉴스</text>

  <line x1="260" y1="175" x2="260" y2="205" stroke="#52525b" stroke-width="1.5" marker-end="url(#arrowsd)"/>

  <rect x="80" y="205" width="360" height="80" rx="12" fill="#14332a" stroke="#22c55e" stroke-width="1.5"/>
  <text x="260" y="230" text-anchor="middle" font-size="13" font-weight="700" fill="#a7f3d0">AI 브리핑 생성</text>
  <text x="260" y="255" text-anchor="middle" font-size="10" fill="#86efac">Claude API · Gemini API</text>

  <line x1="190" y1="285" x2="140" y2="325" stroke="#52525b" stroke-width="1.5" marker-end="url(#arrowsd)"/>
  <line x1="330" y1="285" x2="380" y2="325" stroke="#52525b" stroke-width="1.5" marker-end="url(#arrowsd)"/>

  <rect x="80" y="325" width="120" height="40" rx="10" fill="#3b0d1e" stroke="#ec4899" stroke-width="1.5"/>
  <text x="140" y="350" text-anchor="middle" font-size="12" font-weight="600" fill="#fbcfe8">SQLite 저장</text>

  <rect x="320" y="325" width="120" height="40" rx="10" fill="#422006" stroke="#f59e0b" stroke-width="1.5"/>
  <text x="380" y="345" text-anchor="middle" font-size="11" font-weight="600" fill="#fde68a">Email Sender</text>
  <text x="380" y="358" text-anchor="middle" font-size="9" fill="#fcd34d">SMTP + Retry</text>

  <line x1="380" y1="365" x2="380" y2="395" stroke="#52525b" stroke-width="1.5" marker-end="url(#arrowsd)"/>

  <text x="380" y="410" text-anchor="middle" font-size="11" font-weight="600" fill="#71717a">구독자 발송</text>

  <defs>
    <marker id="arrowsd" viewBox="0 0 10 10" refX="9" refY="5" markerWidth="6" markerHeight="6" orient="auto-start-reverse">
      <path d="M 0 0 L 10 5 L 0 10 z" fill="#52525b"/>
    </marker>
  </defs>
</svg>
